<svg width="912" height="183" viewBox="0 0 912 183" fill="none" xmlns="http://www.w3.org/2000/svg">
<mask id="path-1-outside-1_737_251" maskUnits="userSpaceOnUse" x="-0.567871" y="-0.99939" width="913" height="184" fill="black">
<rect fill="white" x="-0.567871" y="-0.99939" width="913" height="184"/>
<path fill-rule="evenodd" clip-rule="evenodd" d="M5.74313 8.75061L6.05313 12.5006L9.05313 12.7986C12.9241 13.1826 22.3401 15.7366 25.5531 17.2736C30.2301 19.5116 38.2141 25.8086 42.3891 30.5516L46.5531 35.2826V91.5646V147.848L43.8151 151.174C39.7501 156.114 33.9361 161.084 28.1311 164.581C22.4471 168.004 19.5161 168.939 12.0531 169.706C6.58313 170.268 5.59113 171.116 5.56813 175.251L5.55313 178.001H87.1131H168.674L168.363 174.251L168.053 170.501L162.553 169.834C155.338 168.959 151.39 167.678 145.719 164.374C138.728 160.301 129.696 151.229 128.486 147.063C127.872 144.948 127.573 134.969 127.752 122.501L128.053 101.501L169.553 100.938C210.214 100.387 214.628 100.044 222.553 96.8096C237.042 90.8986 245.873 83.2626 251.245 72.0006L253.868 66.5006L253.905 53.5006L253.942 40.5006L250.501 33.5296C243.997 20.3506 231.531 11.2726 214.053 6.98661L206.053 5.02461L105.743 5.01261L5.43213 5.00061L5.74313 8.75061ZM335.11 7.22361C334.254 8.44561 333.553 10.0266 333.553 10.7366C333.553 11.4466 333.149 12.8096 332.656 13.7646C332.162 14.7196 331.087 17.3006 330.266 19.5006C329.445 21.7006 327.557 26.6506 326.072 30.5006C323.567 36.9916 321.41 42.6166 319.553 47.5006C319.135 48.6006 318.01 51.5256 317.053 54.0006C316.096 56.4756 314.971 59.4006 314.553 60.5006C312.696 65.3846 310.539 71.0096 308.034 77.5006C306.549 81.3506 304.654 86.3006 303.823 88.5006C301.615 94.3516 300.981 96.0126 299.053 101.001C298.096 103.476 296.971 106.401 296.553 107.501C294.696 112.385 292.539 118.01 290.034 124.501C288.549 128.351 286.646 133.301 285.807 135.501C284.968 137.701 283.667 140.919 282.917 142.652C282.167 144.385 281.553 146.206 281.553 146.699C281.553 148.191 274.422 154.498 268.053 158.639C256.928 165.872 248.643 169.129 238.053 170.433C235.853 170.704 233.94 170.942 233.803 170.963C233.666 170.984 233.553 172.576 233.553 174.501V178.001H279.553H325.553V174.52V171.039L322.803 170.431C311.86 168.013 304.79 163.505 299.973 155.875C296.943 151.074 296.943 148.997 299.973 141.501C301.307 138.201 303.82 131.901 305.556 127.501C307.293 123.101 309.24 118.256 309.883 116.734L311.053 113.968L334.921 114.234L358.789 114.501L360.714 119.501C361.772 122.251 363.744 126.876 365.096 129.778C366.447 132.681 367.553 135.628 367.553 136.328C367.553 137.028 367.929 138.028 368.388 138.551C368.847 139.073 370.005 141.629 370.962 144.229L372.702 148.957L370.076 153.729C366.784 159.712 364.96 161.89 360.553 165.104C357.304 167.473 351.817 169.559 347.053 170.234L345.053 170.518L344.743 174.259L344.432 178.001H413.493H482.553L482.483 176.251C482.336 172.587 480.848 170.924 475.043 167.938C467.485 164.051 457.606 154.038 453.745 146.353C452.128 143.135 448.228 134.201 445.078 126.501C439.913 113.876 438.285 109.934 435.575 103.501C435.112 102.401 431.72 94.0756 428.036 85.0006C421.951 70.0066 420.104 65.5046 417.575 59.5006C417.112 58.4006 413.727 50.0756 410.053 41.0006C406.379 31.9256 402.994 23.6006 402.531 22.5006C402.067 21.4006 401.044 18.9256 400.256 17.0006C399.469 15.0756 398.02 11.5876 397.037 9.25061L395.249 5.00061H365.958H336.666L335.11 7.22361ZM494.226 5.66161C493.053 6.83361 493.5 12.0486 494.803 12.4016C495.491 12.5876 498.753 13.2456 502.053 13.8636C513.27 15.9646 525.219 23.4156 531.685 32.3416L534.553 36.3006V92.0696V147.84L529.303 153.596C520.405 163.353 508.792 169.537 498.053 170.239L494.053 170.501L493.743 174.251L493.432 178.001H575.053H656.674L656.363 174.251L656.053 170.501L651.053 169.929C648.303 169.614 644.246 168.838 642.038 168.204C634.581 166.062 623.748 158.001 618.381 150.601L615.553 146.701V91.9906V37.2796L618.176 33.3906C624.655 23.7846 636.534 16.0206 648.053 13.8636C656.971 12.1936 656.713 12.3516 656.367 8.75761L656.053 5.50061L575.476 5.24461C531.158 5.10361 494.595 5.29161 494.226 5.66161ZM669.553 9.00061V13.0006L672.303 13.0126C676.36 13.0296 685.428 15.6266 690.459 18.2116C695.765 20.9376 703.853 28.0526 707.728 33.4006L710.553 37.3006V91.0856C710.553 125.953 710.187 145.834 709.511 147.61C708.043 151.471 696.876 162.008 690.993 165.082C685.632 167.884 679.076 169.822 673.553 170.237L670.053 170.501L669.743 174.251L669.432 178.001H763.434C815.247 178.001 857.675 177.613 857.97 177.136C858.264 176.66 860.282 176.032 862.455 175.741C872.036 174.456 887.115 164.437 893.641 155.021C899.421 146.68 901.349 141.575 905.456 123.737C906.792 117.935 906.951 64.9926 905.647 60.5716C905.148 58.8826 903.963 54.1256 903.013 50.0006C900.092 37.3106 894.797 28.0516 885.956 20.1716C880.328 15.1556 867.343 8.01161 863.815 7.98961C862.846 7.98361 859.844 7.30861 857.144 6.48961L852.235 5.00061H760.894H669.553V9.00061ZM128.007 22.2606C127.741 22.9546 127.642 37.2416 127.788 54.0106L128.053 84.5006L134.553 84.8186C138.128 84.9936 142.853 84.6156 145.053 83.9796C155.045 81.0876 163.624 72.5676 167.03 62.1526C172.125 46.5716 162.597 28.1646 146.553 22.5926C141.008 20.6666 128.703 20.4466 128.007 22.2606ZM791.553 91.3936V161.787L793.132 162.393C797.065 163.902 809.321 158.345 815.042 152.459C817.38 150.053 820.364 145.928 821.673 143.293L824.053 138.501V92.0006V45.5006L821.417 40.3946C818.089 33.9496 816.175 31.6856 810.509 27.4946C805.53 23.8106 798.594 21.0376 794.303 21.0156L791.553 21.0006V91.3936ZM331.553 60.4666C331.553 61.2726 330.916 63.4106 330.136 65.2166C327.785 70.6676 325.921 75.3096 324.602 79.0006C323.914 80.9256 322.951 83.4006 322.462 84.5006C321.972 85.6006 320.462 89.4976 319.105 93.1596L316.638 99.8196L318.177 100.41C320.965 101.48 350.393 101.069 351.084 99.9506C351.441 99.3726 351.084 97.4606 350.29 95.7006C349.496 93.9406 345.756 84.9636 341.979 75.7506L335.112 59.0006H333.332C332.354 59.0006 331.553 59.6606 331.553 60.4666Z"/>
</mask>
<path fill-rule="evenodd" clip-rule="evenodd" d="M5.74313 8.75061L6.05313 12.5006L9.05313 12.7986C12.9241 13.1826 22.3401 15.7366 25.5531 17.2736C30.2301 19.5116 38.2141 25.8086 42.3891 30.5516L46.5531 35.2826V91.5646V147.848L43.8151 151.174C39.7501 156.114 33.9361 161.084 28.1311 164.581C22.4471 168.004 19.5161 168.939 12.0531 169.706C6.58313 170.268 5.59113 171.116 5.56813 175.251L5.55313 178.001H87.1131H168.674L168.363 174.251L168.053 170.501L162.553 169.834C155.338 168.959 151.39 167.678 145.719 164.374C138.728 160.301 129.696 151.229 128.486 147.063C127.872 144.948 127.573 134.969 127.752 122.501L128.053 101.501L169.553 100.938C210.214 100.387 214.628 100.044 222.553 96.8096C237.042 90.8986 245.873 83.2626 251.245 72.0006L253.868 66.5006L253.905 53.5006L253.942 40.5006L250.501 33.5296C243.997 20.3506 231.531 11.2726 214.053 6.98661L206.053 5.02461L105.743 5.01261L5.43213 5.00061L5.74313 8.75061ZM335.11 7.22361C334.254 8.44561 333.553 10.0266 333.553 10.7366C333.553 11.4466 333.149 12.8096 332.656 13.7646C332.162 14.7196 331.087 17.3006 330.266 19.5006C329.445 21.7006 327.557 26.6506 326.072 30.5006C323.567 36.9916 321.41 42.6166 319.553 47.5006C319.135 48.6006 318.01 51.5256 317.053 54.0006C316.096 56.4756 314.971 59.4006 314.553 60.5006C312.696 65.3846 310.539 71.0096 308.034 77.5006C306.549 81.3506 304.654 86.3006 303.823 88.5006C301.615 94.3516 300.981 96.0126 299.053 101.001C298.096 103.476 296.971 106.401 296.553 107.501C294.696 112.385 292.539 118.01 290.034 124.501C288.549 128.351 286.646 133.301 285.807 135.501C284.968 137.701 283.667 140.919 282.917 142.652C282.167 144.385 281.553 146.206 281.553 146.699C281.553 148.191 274.422 154.498 268.053 158.639C256.928 165.872 248.643 169.129 238.053 170.433C235.853 170.704 233.94 170.942 233.803 170.963C233.666 170.984 233.553 172.576 233.553 174.501V178.001H279.553H325.553V174.52V171.039L322.803 170.431C311.86 168.013 304.79 163.505 299.973 155.875C296.943 151.074 296.943 148.997 299.973 141.501C301.307 138.201 303.82 131.901 305.556 127.501C307.293 123.101 309.24 118.256 309.883 116.734L311.053 113.968L334.921 114.234L358.789 114.501L360.714 119.501C361.772 122.251 363.744 126.876 365.096 129.778C366.447 132.681 367.553 135.628 367.553 136.328C367.553 137.028 367.929 138.028 368.388 138.551C368.847 139.073 370.005 141.629 370.962 144.229L372.702 148.957L370.076 153.729C366.784 159.712 364.96 161.89 360.553 165.104C357.304 167.473 351.817 169.559 347.053 170.234L345.053 170.518L344.743 174.259L344.432 178.001H413.493H482.553L482.483 176.251C482.336 172.587 480.848 170.924 475.043 167.938C467.485 164.051 457.606 154.038 453.745 146.353C452.128 143.135 448.228 134.201 445.078 126.501C439.913 113.876 438.285 109.934 435.575 103.501C435.112 102.401 431.72 94.0756 428.036 85.0006C421.951 70.0066 420.104 65.5046 417.575 59.5006C417.112 58.4006 413.727 50.0756 410.053 41.0006C406.379 31.9256 402.994 23.6006 402.531 22.5006C402.067 21.4006 401.044 18.9256 400.256 17.0006C399.469 15.0756 398.02 11.5876 397.037 9.25061L395.249 5.00061H365.958H336.666L335.11 7.22361ZM494.226 5.66161C493.053 6.83361 493.5 12.0486 494.803 12.4016C495.491 12.5876 498.753 13.2456 502.053 13.8636C513.27 15.9646 525.219 23.4156 531.685 32.3416L534.553 36.3006V92.0696V147.84L529.303 153.596C520.405 163.353 508.792 169.537 498.053 170.239L494.053 170.501L493.743 174.251L493.432 178.001H575.053H656.674L656.363 174.251L656.053 170.501L651.053 169.929C648.303 169.614 644.246 168.838 642.038 168.204C634.581 166.062 623.748 158.001 618.381 150.601L615.553 146.701V91.9906V37.2796L618.176 33.3906C624.655 23.7846 636.534 16.0206 648.053 13.8636C656.971 12.1936 656.713 12.3516 656.367 8.75761L656.053 5.50061L575.476 5.24461C531.158 5.10361 494.595 5.29161 494.226 5.66161ZM669.553 9.00061V13.0006L672.303 13.0126C676.36 13.0296 685.428 15.6266 690.459 18.2116C695.765 20.9376 703.853 28.0526 707.728 33.4006L710.553 37.3006V91.0856C710.553 125.953 710.187 145.834 709.511 147.61C708.043 151.471 696.876 162.008 690.993 165.082C685.632 167.884 679.076 169.822 673.553 170.237L670.053 170.501L669.743 174.251L669.432 178.001H763.434C815.247 178.001 857.675 177.613 857.97 177.136C858.264 176.66 860.282 176.032 862.455 175.741C872.036 174.456 887.115 164.437 893.641 155.021C899.421 146.68 901.349 141.575 905.456 123.737C906.792 117.935 906.951 64.9926 905.647 60.5716C905.148 58.8826 903.963 54.1256 903.013 50.0006C900.092 37.3106 894.797 28.0516 885.956 20.1716C880.328 15.1556 867.343 8.01161 863.815 7.98961C862.846 7.98361 859.844 7.30861 857.144 6.48961L852.235 5.00061H760.894H669.553V9.00061ZM128.007 22.2606C127.741 22.9546 127.642 37.2416 127.788 54.0106L128.053 84.5006L134.553 84.8186C138.128 84.9936 142.853 84.6156 145.053 83.9796C155.045 81.0876 163.624 72.5676 167.03 62.1526C172.125 46.5716 162.597 28.1646 146.553 22.5926C141.008 20.6666 128.703 20.4466 128.007 22.2606ZM791.553 91.3936V161.787L793.132 162.393C797.065 163.902 809.321 158.345 815.042 152.459C817.38 150.053 820.364 145.928 821.673 143.293L824.053 138.501V92.0006V45.5006L821.417 40.3946C818.089 33.9496 816.175 31.6856 810.509 27.4946C805.53 23.8106 798.594 21.0376 794.303 21.0156L791.553 21.0006V91.3936ZM331.553 60.4666C331.553 61.2726 330.916 63.4106 330.136 65.2166C327.785 70.6676 325.921 75.3096 324.602 79.0006C323.914 80.9256 322.951 83.4006 322.462 84.5006C321.972 85.6006 320.462 89.4976 319.105 93.1596L316.638 99.8196L318.177 100.41C320.965 101.48 350.393 101.069 351.084 99.9506C351.441 99.3726 351.084 97.4606 350.29 95.7006C349.496 93.9406 345.756 84.9636 341.979 75.7506L335.112 59.0006H333.332C332.354 59.0006 331.553 59.6606 331.553 60.4666Z" fill="#000826"/>
<path fill-rule="evenodd" clip-rule="evenodd" d="M5.74313 8.75061L6.05313 12.5006L9.05313 12.7986C12.9241 13.1826 22.3401 15.7366 25.5531 17.2736C30.2301 19.5116 38.2141 25.8086 42.3891 30.5516L46.5531 35.2826V91.5646V147.848L43.8151 151.174C39.7501 156.114 33.9361 161.084 28.1311 164.581C22.4471 168.004 19.5161 168.939 12.0531 169.706C6.58313 170.268 5.59113 171.116 5.56813 175.251L5.55313 178.001H87.1131H168.674L168.363 174.251L168.053 170.501L162.553 169.834C155.338 168.959 151.39 167.678 145.719 164.374C138.728 160.301 129.696 151.229 128.486 147.063C127.872 144.948 127.573 134.969 127.752 122.501L128.053 101.501L169.553 100.938C210.214 100.387 214.628 100.044 222.553 96.8096C237.042 90.8986 245.873 83.2626 251.245 72.0006L253.868 66.5006L253.905 53.5006L253.942 40.5006L250.501 33.5296C243.997 20.3506 231.531 11.2726 214.053 6.98661L206.053 5.02461L105.743 5.01261L5.43213 5.00061L5.74313 8.75061ZM335.11 7.22361C334.254 8.44561 333.553 10.0266 333.553 10.7366C333.553 11.4466 333.149 12.8096 332.656 13.7646C332.162 14.7196 331.087 17.3006 330.266 19.5006C329.445 21.7006 327.557 26.6506 326.072 30.5006C323.567 36.9916 321.41 42.6166 319.553 47.5006C319.135 48.6006 318.01 51.5256 317.053 54.0006C316.096 56.4756 314.971 59.4006 314.553 60.5006C312.696 65.3846 310.539 71.0096 308.034 77.5006C306.549 81.3506 304.654 86.3006 303.823 88.5006C301.615 94.3516 300.981 96.0126 299.053 101.001C298.096 103.476 296.971 106.401 296.553 107.501C294.696 112.385 292.539 118.01 290.034 124.501C288.549 128.351 286.646 133.301 285.807 135.501C284.968 137.701 283.667 140.919 282.917 142.652C282.167 144.385 281.553 146.206 281.553 146.699C281.553 148.191 274.422 154.498 268.053 158.639C256.928 165.872 248.643 169.129 238.053 170.433C235.853 170.704 233.94 170.942 233.803 170.963C233.666 170.984 233.553 172.576 233.553 174.501V178.001H279.553H325.553V174.52V171.039L322.803 170.431C311.86 168.013 304.79 163.505 299.973 155.875C296.943 151.074 296.943 148.997 299.973 141.501C301.307 138.201 303.82 131.901 305.556 127.501C307.293 123.101 309.24 118.256 309.883 116.734L311.053 113.968L334.921 114.234L358.789 114.501L360.714 119.501C361.772 122.251 363.744 126.876 365.096 129.778C366.447 132.681 367.553 135.628 367.553 136.328C367.553 137.028 367.929 138.028 368.388 138.551C368.847 139.073 370.005 141.629 370.962 144.229L372.702 148.957L370.076 153.729C366.784 159.712 364.96 161.89 360.553 165.104C357.304 167.473 351.817 169.559 347.053 170.234L345.053 170.518L344.743 174.259L344.432 178.001H413.493H482.553L482.483 176.251C482.336 172.587 480.848 170.924 475.043 167.938C467.485 164.051 457.606 154.038 453.745 146.353C452.128 143.135 448.228 134.201 445.078 126.501C439.913 113.876 438.285 109.934 435.575 103.501C435.112 102.401 431.72 94.0756 428.036 85.0006C421.951 70.0066 420.104 65.5046 417.575 59.5006C417.112 58.4006 413.727 50.0756 410.053 41.0006C406.379 31.9256 402.994 23.6006 402.531 22.5006C402.067 21.4006 401.044 18.9256 400.256 17.0006C399.469 15.0756 398.02 11.5876 397.037 9.25061L395.249 5.00061H365.958H336.666L335.11 7.22361ZM494.226 5.66161C493.053 6.83361 493.5 12.0486 494.803 12.4016C495.491 12.5876 498.753 13.2456 502.053 13.8636C513.27 15.9646 525.219 23.4156 531.685 32.3416L534.553 36.3006V92.0696V147.84L529.303 153.596C520.405 163.353 508.792 169.537 498.053 170.239L494.053 170.501L493.743 174.251L493.432 178.001H575.053H656.674L656.363 174.251L656.053 170.501L651.053 169.929C648.303 169.614 644.246 168.838 642.038 168.204C634.581 166.062 623.748 158.001 618.381 150.601L615.553 146.701V91.9906V37.2796L618.176 33.3906C624.655 23.7846 636.534 16.0206 648.053 13.8636C656.971 12.1936 656.713 12.3516 656.367 8.75761L656.053 5.50061L575.476 5.24461C531.158 5.10361 494.595 5.29161 494.226 5.66161ZM669.553 9.00061V13.0006L672.303 13.0126C676.36 13.0296 685.428 15.6266 690.459 18.2116C695.765 20.9376 703.853 28.0526 707.728 33.4006L710.553 37.3006V91.0856C710.553 125.953 710.187 145.834 709.511 147.61C708.043 151.471 696.876 162.008 690.993 165.082C685.632 167.884 679.076 169.822 673.553 170.237L670.053 170.501L669.743 174.251L669.432 178.001H763.434C815.247 178.001 857.675 177.613 857.97 177.136C858.264 176.66 860.282 176.032 862.455 175.741C872.036 174.456 887.115 164.437 893.641 155.021C899.421 146.68 901.349 141.575 905.456 123.737C906.792 117.935 906.951 64.9926 905.647 60.5716C905.148 58.8826 903.963 54.1256 903.013 50.0006C900.092 37.3106 894.797 28.0516 885.956 20.1716C880.328 15.1556 867.343 8.01161 863.815 7.98961C862.846 7.98361 859.844 7.30861 857.144 6.48961L852.235 5.00061H760.894H669.553V9.00061ZM128.007 22.2606C127.741 22.9546 127.642 37.2416 127.788 54.0106L128.053 84.5006L134.553 84.8186C138.128 84.9936 142.853 84.6156 145.053 83.9796C155.045 81.0876 163.624 72.5676 167.03 62.1526C172.125 46.5716 162.597 28.1646 146.553 22.5926C141.008 20.6666 128.703 20.4466 128.007 22.2606ZM791.553 91.3936V161.787L793.132 162.393C797.065 163.902 809.321 158.345 815.042 152.459C817.38 150.053 820.364 145.928 821.673 143.293L824.053 138.501V92.0006V45.5006L821.417 40.3946C818.089 33.9496 816.175 31.6856 810.509 27.4946C805.53 23.8106 798.594 21.0376 794.303 21.0156L791.553 21.0006V91.3936ZM331.553 60.4666C331.553 61.2726 330.916 63.4106 330.136 65.2166C327.785 70.6676 325.921 75.3096 324.602 79.0006C323.914 80.9256 322.951 83.4006 322.462 84.5006C321.972 85.6006 320.462 89.4976 319.105 93.1596L316.638 99.8196L318.177 100.41C320.965 101.48 350.393 101.069 351.084 99.9506C351.441 99.3726 351.084 97.4606 350.29 95.7006C349.496 93.9406 345.756 84.9636 341.979 75.7506L335.112 59.0006H333.332C332.354 59.0006 331.553 59.6606 331.553 60.4666Z" stroke="url(#paint0_radial_737_251)" stroke-width="10" mask="url(#path-1-outside-1_737_251)"/>
<defs>
<radialGradient id="paint0_radial_737_251" cx="0" cy="0" r="1" gradientTransform="matrix(49.3881 97.3125 -662.781 93.7609 455.989 91.5006)" gradientUnits="userSpaceOnUse">
<stop stop-color="#BCE9FF"/>
<stop offset="1" stop-color="#2A8CFF"/>
</radialGradient>
</defs>
</svg>
